<?xml version="1.0" encoding="UTF-8"?>
<svg width="1200pt" height="1200pt" version="1.1" viewBox="0 0 1200 1200" xmlns="http://www.w3.org/2000/svg">
 <g>
  <path d="m940 1e3c-15.914 0-31.176 6.3203-42.426 17.574-11.254 11.25-17.574 26.512-17.574 42.426s6.3203 31.176 17.574 42.426c11.25 11.254 26.512 17.574 42.426 17.574s31.176-6.3203 42.426-17.574c11.254-11.25 17.574-26.512 17.574-42.426s-6.3203-31.176-17.574-42.426c-11.25-11.254-26.512-17.574-42.426-17.574zm0 80c-5.3047 0-10.391-2.1055-14.141-5.8594-3.7539-3.75-5.8594-8.8359-5.8594-14.141s2.1055-10.391 5.8594-14.141c3.75-3.7539 8.8359-5.8594 14.141-5.8594s10.391 2.1055 14.141 5.8594c3.7539 3.75 5.8594 8.8359 5.8594 14.141s-2.1055 10.391-5.8594 14.141c-3.75 3.7539-8.8359 5.8594-14.141 5.8594z"/>
  <path d="m260 1e3c-15.914 0-31.176 6.3203-42.426 17.574-11.254 11.25-17.574 26.512-17.574 42.426s6.3203 31.176 17.574 42.426c11.25 11.254 26.512 17.574 42.426 17.574s31.176-6.3203 42.426-17.574c11.254-11.25 17.574-26.512 17.574-42.426s-6.3203-31.176-17.574-42.426c-11.25-11.254-26.512-17.574-42.426-17.574zm0 80c-5.3047 0-10.391-2.1055-14.141-5.8594-3.7539-3.75-5.8594-8.8359-5.8594-14.141s2.1055-10.391 5.8594-14.141c3.75-3.7539 8.8359-5.8594 14.141-5.8594s10.391 2.1055 14.141 5.8594c3.7539 3.75 5.8594 8.8359 5.8594 14.141s-2.1055 10.391-5.8594 14.141c-3.75 3.7539-8.8359 5.8594-14.141 5.8594z"/>
  <path d="m1180 925.72v-124.32c-0.015625-10.973-4.3828-21.496-12.145-29.254-7.7578-7.7617-18.281-12.129-29.254-12.145h-48.82l-122-157.22c-11.004-14.27-27.965-22.672-45.98-22.781h-341.22c55.473-55.688 89.922-128.88 97.488-207.11 7.5625-78.234-12.223-156.67-55.996-221.95-43.77-65.285-108.82-113.38-184.06-136.09-75.246-22.707-156.04-18.633-228.62 11.535s-132.45 84.562-169.43 153.92c-36.98 69.355-48.773 149.39-33.371 226.46s57.047 146.43 117.84 196.25c60.793 49.82 136.98 77.023 215.57 76.984 14.859-0.11328 29.699-1.1953 44.422-3.2383l-92.422 83.5-151.84 4.9805h-0.48047l-61.34 2v-0.003907c-15.84 1.1953-30.645 8.3203-41.461 19.957-10.816 11.633-16.844 26.918-16.879 42.805v95.52c-12.477 7.5469-20.074 21.098-20 35.68v77.402c0.015625 10.973 4.3828 21.496 12.145 29.254 7.7578 7.7617 18.281 12.129 29.254 12.145h80.203c6.4297 44.773 34.121 83.668 74.324 104.4 40.199 20.727 87.949 20.727 128.15 0 40.203-20.73 67.895-59.625 74.324-104.4h403.2c6.4297 44.773 34.121 83.668 74.324 104.4 40.199 20.727 87.949 20.727 128.15 0 40.203-20.73 67.895-59.625 74.324-104.4h80.203c10.973-0.015625 21.496-4.3828 29.254-12.145 7.7617-7.7578 12.129-18.281 12.145-29.254v-76c0.16797-14.93-7.3984-28.879-20-36.883zm-243.8-298.26 102.94 132.54h-259.14v-140h141.8c5.6836 0.17188 10.98 2.9141 14.398 7.4609zm-896.2-287.46c0-79.566 31.605-155.87 87.867-212.13 56.262-56.262 132.57-87.867 212.13-87.867s155.87 31.605 212.13 87.867c56.262 56.262 87.867 132.57 87.867 212.13s-31.605 155.87-87.867 212.13c-56.262 56.262-132.57 87.867-212.13 87.867-79.539-0.089844-155.79-31.727-212.03-87.969-56.242-56.238-87.879-132.49-87.969-212.03zm492.44 280h207.56v140h-388l116.72-105.48c22.414-9.1914 43.777-20.766 63.723-34.52zm-452 187.18 39.559-1.1797v14c0 5.3047-2.1055 10.391-5.8594 14.141-3.75 3.7539-8.8359 5.8594-14.141 5.8594h-40v-10c-0.027344-5.6602 2.0508-11.129 5.8281-15.344 3.7734-4.2188 8.9844-6.8828 14.613-7.4766zm179.56 352.82c-26.523 0-51.957-10.535-70.711-29.289-18.754-18.754-29.289-44.188-29.289-70.711s10.535-51.957 29.289-70.711c18.754-18.754 44.188-29.289 70.711-29.289s51.957 10.535 70.711 29.289c18.754 18.754 29.289 44.188 29.289 70.711-0.03125 26.512-10.578 51.93-29.324 70.676-18.746 18.746-44.164 29.293-70.676 29.324zm680 0c-26.523 0-51.957-10.535-70.711-29.289-18.754-18.754-29.289-44.188-29.289-70.711s10.535-51.957 29.289-70.711c18.754-18.754 44.188-29.289 70.711-29.289s51.957 10.535 70.711 29.289c18.754 18.754 29.289 44.188 29.289 70.711-0.03125 26.512-10.578 51.93-29.324 70.676-18.746 18.746-44.164 29.293-70.676 29.324zm218.6-120h-80.203c-6.4297-44.773-34.121-83.668-74.324-104.4-40.199-20.727-87.949-20.727-128.15 0-40.203 20.73-67.895 59.625-74.324 104.4h-403.2c-6.3867-44.773-34.035-83.688-74.215-104.45-40.176-20.766-87.914-20.809-128.13-0.12109-40.215 20.688-67.938 59.551-74.41 104.31l-81.641-1.1367v-78.602h40c7.1445 0 13.746-3.8125 17.32-10 3.5742-6.1875 3.5742-13.812 0-20-3.5742-6.1875-10.176-10-17.32-10h-20v-40h40c15.914 0 31.176-6.3203 42.426-17.574 11.254-11.25 17.574-26.512 17.574-42.426v-15.422l140-4.5781h780l60 1.3984v118.6h-20c-7.1445 0-13.746 3.8125-17.32 10-3.5742 6.1875-3.5742 13.812 0 20 3.5742 6.1875 10.176 10 17.32 10h39.18c0.58594 0.73438 0.87891 1.6602 0.82031 2.6016z"/>
  <path d="m420 240c0 7.1445 3.8125 13.746 10 17.32 6.1875 3.5742 13.812 3.5742 20 0 6.1875-3.5742 10-10.176 10-17.32-0.050781-28.332-10.117-55.73-28.414-77.359-18.301-21.629-43.656-36.094-71.586-40.84v-21.801c0-7.1445-3.8125-13.746-10-17.32-6.1875-3.5742-13.812-3.5742-20 0-6.1875 3.5742-10 10.176-10 17.32v21.801c-37.57 6.3164-69.902 30.121-87.09 64.125-17.188 34-17.188 74.148 0 108.15 17.188 34.004 49.52 57.809 87.09 64.125v158.96c-17.121-4.4219-32.297-14.391-43.152-28.352-10.855-13.961-16.781-31.125-16.848-48.809 0-7.1445-3.8125-13.746-10-17.32-6.1875-3.5742-13.812-3.5742-20 0-6.1875 3.5742-10 10.176-10 17.32 0.050781 28.332 10.117 55.73 28.414 77.359 18.301 21.629 43.656 36.094 71.586 40.84v21.801c0 7.1445 3.8125 13.746 10 17.32 6.1875 3.5742 13.812 3.5742 20 0 6.1875-3.5742 10-10.176 10-17.32v-21.801c37.57-6.3164 69.902-30.121 87.09-64.125 17.188-34 17.188-74.148 0-108.15-17.188-34.004-49.52-57.809-87.09-64.125v-158.96c17.121 4.4219 32.297 14.391 43.152 28.352 10.855 13.961 16.781 31.125 16.848 48.809zm-160 0c0.066406-17.684 5.9922-34.848 16.848-48.809 10.855-13.961 26.031-23.93 43.152-28.352v154.32c-17.121-4.4219-32.297-14.391-43.152-28.352-10.855-13.961-16.781-31.125-16.848-48.809zm160 200c-0.066406 17.684-5.9922 34.848-16.848 48.809-10.855 13.961-26.031 23.93-43.152 28.352v-154.32c17.121 4.4219 32.297 14.391 43.152 28.352 10.855 13.961 16.781 31.125 16.848 48.809z"/>
 </g>
</svg>
