<?xml version="1.0" encoding="UTF-8"?>
<svg width="1200pt" height="1200pt" version="1.1" viewBox="0 0 1200 1200" xmlns="http://www.w3.org/2000/svg">
 <g>
  <path d="m840 640c-18.289 0.027344-36.012 6.3398-50.199 17.879-14.062-11.484-31.645-17.797-49.801-17.879-28.582 0-54.992 15.246-69.281 40-14.293 24.754-14.293 55.246 0 80 14.289 24.754 40.699 40 69.281 40 18.156-0.082031 35.738-6.3945 49.801-17.879 20.191 16.383 47.086 21.934 72.113 14.879 25.031-7.0586 45.066-25.836 53.727-50.355s4.8633-51.719-10.18-72.926c-15.043-21.211-39.457-33.785-65.461-33.719zm-100 120c-10.609 0-20.781-4.2148-28.285-11.715-7.5-7.5039-11.715-17.676-11.715-28.285s4.2148-20.781 11.715-28.285c7.5039-7.5 17.676-11.715 28.285-11.715s20.781 4.2148 28.285 11.715c7.5 7.5039 11.715 17.676 11.715 28.285s-4.2148 20.781-11.715 28.285c-7.5039 7.5-17.676 11.715-28.285 11.715zm100 0c-9.5586 0.023438-18.801-3.4297-26-9.7188 8.0547-19.383 8.0547-41.18 0-60.562 7.1992-6.2891 16.441-9.7422 26-9.7188 14.289 0 27.496 7.625 34.641 20s7.1445 27.625 0 40-20.352 20-34.641 20z"/>
  <path d="m280 880h640c21.219 0 41.566-8.4297 56.57-23.43 15-15.004 23.43-35.352 23.43-56.57v-400c0-21.219-8.4297-41.566-23.43-56.57-15.004-15-35.352-23.43-56.57-23.43h-640c-21.219 0-41.566 8.4297-56.57 23.43-15 15.004-23.43 35.352-23.43 56.57v400c0 21.219 8.4297 41.566 23.43 56.57 15.004 15 35.352 23.43 56.57 23.43zm640-40h-640c-10.609 0-20.781-4.2148-28.285-11.715-7.5-7.5039-11.715-17.676-11.715-28.285v-240h720v240c0 10.609-4.2148 20.781-11.715 28.285-7.5039 7.5-17.676 11.715-28.285 11.715zm-680-360h720v40h-720zm40-120h640c10.609 0 20.781 4.2148 28.285 11.715 7.5 7.5039 11.715 17.676 11.715 28.285v40h-720v-40c0-10.609 4.2148-20.781 11.715-28.285 7.5039-7.5 17.676-11.715 28.285-11.715z"/>
  <path d="m320 740h-20c-7.1445 0-13.746 3.8125-17.32 10-3.5742 6.1875-3.5742 13.812 0 20 3.5742 6.1875 10.176 10 17.32 10h20c7.1445 0 13.746-3.8125 17.32-10 3.5742-6.1875 3.5742-13.812 0-20-3.5742-6.1875-10.176-10-17.32-10z"/>
  <path d="m520 660h-220c-7.1445 0-13.746 3.8125-17.32 10-3.5742 6.1875-3.5742 13.812 0 20 3.5742 6.1875 10.176 10 17.32 10h220c7.1445 0 13.746-3.8125 17.32-10 3.5742-6.1875 3.5742-13.812 0-20-3.5742-6.1875-10.176-10-17.32-10z"/>
  <path d="m420 740h-20c-7.1445 0-13.746 3.8125-17.32 10-3.5742 6.1875-3.5742 13.812 0 20 3.5742 6.1875 10.176 10 17.32 10h20c7.1445 0 13.746-3.8125 17.32-10 3.5742-6.1875 3.5742-13.812 0-20-3.5742-6.1875-10.176-10-17.32-10z"/>
  <path d="m520 740h-20c-7.1445 0-13.746 3.8125-17.32 10-3.5742 6.1875-3.5742 13.812 0 20 3.5742 6.1875 10.176 10 17.32 10h20c7.1445 0 13.746-3.8125 17.32-10 3.5742-6.1875 3.5742-13.812 0-20-3.5742-6.1875-10.176-10-17.32-10z"/>
  <path d="m600 0c-147.67-0.22266-290.18 54.289-400 153v-94.422c0-7.1445-3.8125-13.746-10-17.32-6.1875-3.5703-13.812-3.5703-20 0-6.1875 3.5742-10 10.176-10 17.32v141.42c0 5.3047 2.1055 10.391 5.8594 14.141 3.75 3.7539 8.8359 5.8594 14.141 5.8594h141.42c7.1445 0 13.746-3.8125 17.32-10 3.5703-6.1875 3.5703-13.812 0-20-3.5742-6.1875-10.176-10-17.32-10h-91.703c105.69-92.91 242.56-142.49 383.23-138.82 140.67 3.668 274.77 60.309 375.48 158.59 100.71 98.289 160.59 230.97 167.67 371.52 7.082 140.54-39.16 278.57-129.47 386.48-90.316 107.91-218.04 177.75-357.63 195.54-139.59 17.789-280.75-17.781-395.24-99.598-114.49-81.812-193.88-203.84-222.27-341.66s-3.6992-281.29 69.137-401.69c3.6992-6.1133 3.8594-13.734 0.41406-19.996-3.4414-6.2617-9.9648-10.211-17.109-10.359-7.1445-0.15234-13.824 3.5234-17.527 9.6367-68.582 113.47-97.648 246.47-82.656 378.21 14.996 131.74 73.207 254.8 165.54 349.96 92.332 95.16 213.59 157.05 344.81 176.02 131.23 18.961 265.04-6.0781 380.54-71.207 115.49-65.133 206.16-166.68 257.83-288.79 51.676-122.11 61.445-257.89 27.789-386.14-33.66-128.25-108.85-241.73-213.82-322.73-104.98-80.996-233.83-124.94-366.42-124.96z"/>
 </g>
</svg>
