<?xml version="1.0" encoding="UTF-8"?>
<svg width="1200pt" height="1200pt" version="1.1" viewBox="0 0 1200 1200" xmlns="http://www.w3.org/2000/svg">
 <g>
  <path d="m600 380c0-26.523-10.535-51.957-29.289-70.711-18.754-18.754-44.188-29.289-70.711-29.289s-51.957 10.535-70.711 29.289c-18.754 18.754-29.289 44.188-29.289 70.711s10.535 51.957 29.289 70.711c18.754 18.754 44.188 29.289 70.711 29.289 26.512-0.03125 51.93-10.578 70.676-29.324 18.746-18.746 29.293-44.164 29.324-70.676zm-100 60c-15.914 0-31.176-6.3203-42.426-17.574-11.254-11.25-17.574-26.512-17.574-42.426s6.3203-31.176 17.574-42.426c11.25-11.254 26.512-17.574 42.426-17.574s31.176 6.3203 42.426 17.574c11.254 11.25 17.574 26.512 17.574 42.426s-6.3203 31.176-17.574 42.426c-11.25 11.254-26.512 17.574-42.426 17.574z"/>
  <path d="m920 640c-6.5391 0-12.961 0.53906-19.398 0.98047v-125.58c7.4922 4.1836 16.227 5.5742 24.648 3.9258 8.4219-1.6445 15.984-6.2266 21.352-12.926l45.398-56.16c5.957-7.4609 8.7656-16.953 7.832-26.453-0.93359-9.5039-5.5391-18.266-12.832-24.426l-127-107.08v-212.28c0-10.609-4.2148-20.781-11.715-28.285-7.5039-7.5-17.676-11.715-28.285-11.715h-80c-10.609 0-20.781 4.2148-28.285 11.715-7.5 7.5039-11.715 17.676-11.715 28.285v77.301l-175.78-148.28c-6.6836-5.7969-15.223-9.0039-24.07-9.0391-8.8477-0.039063-17.418 3.0977-24.148 8.8398l-462.86 390.46c-7.3398 6.1406-11.984 14.91-12.945 24.434-0.96094 9.5195 1.8398 19.039 7.8047 26.523l45.262 56c6.2109 7.793 15.336 12.707 25.258 13.602 1.0586 0.10156 2.1211 0.14062 3.1797 0.14062 6.168-0.03125 12.23-1.6211 17.621-4.6211v448c-0.027343 9.6992 3.8047 19.008 10.645 25.883 6.8438 6.8711 16.137 10.742 25.836 10.758h516c19.883 66.691 63.891 123.59 123.44 159.6 59.555 36.012 130.38 48.551 198.68 35.184 68.297-13.371 129.17-51.695 170.74-107.5 41.578-55.809 60.883-125.1 54.152-194.37-6.7344-69.27-39.02-133.55-90.566-180.3-51.547-46.758-118.66-72.645-188.25-72.613zm-180-560h80v178.54l-80-67.5zm-698.62 347.8 458.62-386.9 206.96 174.6 0.14062 0.19922 120 101.2h0.14063l131.4 110.84-40.879 50.602-21.762-18.66c-1.3633-1.6211-2.9766-3.0117-4.7812-4.1211l-366.6-314.68c-6.7656-6.0742-15.531-9.4414-24.621-9.457-8.918-0.042969-17.535 3.2266-24.18 9.1797l-369.42 317.1c-0.51563 0.39453-1.0078 0.8125-1.4766 1.2617l-22.66 19.461zm218.62 532.2v-360h200v360zm240 0v-360c0-10.609-4.2148-20.781-11.715-28.285-7.5039-7.5-17.676-11.715-28.285-11.715h-200c-10.609 0-20.781 4.2148-28.285 11.715-7.5 7.5039-11.715 17.676-11.715 28.285v360h-80.602v-478l360.6-309.54 360.6 309.54v164.42c-13.828 3.0586-27.402 7.168-40.602 12.297v-58.719c0-10.609-4.2148-20.781-11.715-28.285-7.5039-7.5-17.676-11.715-28.285-11.715h-200c-10.609 0-20.781 4.2148-28.285 11.715-7.5 7.5039-11.715 17.676-11.715 28.285v100c0 10.609 4.2148 20.781 11.715 28.285 7.5039 7.5 17.676 11.715 28.285 11.715h125.84c-25.676 29.992-44.562 65.18-55.375 103.15-10.812 37.969-13.289 77.828-7.2656 116.85zm247.36-260h-167.36v-100h200v77.879c-11.383 6.6016-22.289 13.996-32.641 22.121zm172.64 460c-63.652 0-124.7-25.285-169.71-70.293-45.008-45.012-70.293-106.05-70.293-169.71s25.285-124.7 70.293-169.71c45.012-45.008 106.05-70.293 169.71-70.293s124.7 25.285 169.71 70.293c45.008 45.012 70.293 106.05 70.293 169.71-0.070312 63.629-25.375 124.64-70.371 169.63-44.992 44.996-106 70.301-169.63 70.371z"/>
  <path d="m320 760c-5.3047 0-10.391 2.1055-14.141 5.8594-3.7539 3.75-5.8594 8.8359-5.8594 14.141v20c0 7.1445 3.8125 13.746 10 17.32 6.1875 3.5742 13.812 3.5742 20 0 6.1875-3.5742 10-10.176 10-17.32v-20c0-5.3047-2.1055-10.391-5.8594-14.141-3.75-3.7539-8.8359-5.8594-14.141-5.8594z"/>
  <path d="m980 840c0 7.1445 3.8125 13.746 10 17.32 6.1875 3.5742 13.812 3.5742 20 0 6.1875-3.5742 10-10.176 10-17.32-0.027344-23.043-8-45.375-22.574-63.227-14.574-17.852-34.855-30.133-57.426-34.773v-2c0-7.1445-3.8125-13.746-10-17.32-6.1875-3.5742-13.812-3.5742-20 0-6.1875 3.5742-10 10.176-10 17.32v2c-30.375 6.168-56.176 26.074-69.848 53.891s-13.672 60.402 0 88.219 39.473 47.723 69.848 53.891v118.34c-11.66-4.1211-21.762-11.75-28.926-21.836-7.1602-10.082-11.027-22.137-11.074-34.504 0-7.1445-3.8125-13.746-10-17.32-6.1875-3.5742-13.812-3.5742-20 0-6.1875 3.5742-10 10.176-10 17.32 0.027344 23.043 8 45.375 22.574 63.227 14.574 17.852 34.855 30.133 57.426 34.773v2c0 7.1445 3.8125 13.746 10 17.32 6.1875 3.5742 13.812 3.5742 20 0 6.1875-3.5742 10-10.176 10-17.32v-2c30.375-6.168 56.176-26.074 69.848-53.891s13.672-60.402 0-88.219-39.473-47.723-69.848-53.891v-118.32c11.656 4.1211 21.758 11.746 28.918 21.828 7.1602 10.078 11.031 22.129 11.082 34.492zm-120 0c0.050781-12.363 3.9219-24.414 11.082-34.492 7.1602-10.082 17.262-17.707 28.918-21.828v112.64c-11.656-4.1211-21.758-11.746-28.918-21.828-7.1602-10.078-11.031-22.129-11.082-34.492zm120 160c-0.050781 12.363-3.9219 24.414-11.082 34.492-7.1602 10.082-17.262 17.707-28.918 21.828v-112.64c11.656 4.1211 21.758 11.746 28.918 21.828 7.1602 10.078 11.031 22.129 11.082 34.492z"/>
 </g>
</svg>
