<?xml version="1.0" encoding="UTF-8"?>
<svg width="1200pt" height="1200pt" version="1.1" viewBox="0 0 1200 1200" xmlns="http://www.w3.org/2000/svg">
 <g>
  <path d="m1192 776.72c-9.6953-17.242-26.918-28.941-46.52-31.598 22.742-44.492 34.574-93.754 34.52-143.72 0-110.14-54.34-242-132.56-328.36 16.074-8.2227 27.574-23.266 31.289-40.934 3.7148-17.672-0.75391-36.07-12.156-50.07-11.402-14-28.52-22.098-46.574-22.035h-10.461l29-91.16c2.5547-8.6875 1.6523-18.023-2.5156-26.062-4.1641-8.0352-11.273-14.156-19.844-17.078-50.438-16.512-103.11-25.18-156.18-25.699-53.188 0.52734-105.98 9.2344-156.52 25.82-8.5508 3.0195-15.602 9.2305-19.684 17.328-4.082 8.0977-4.875 17.461-2.2188 26.133l28.883 90.719h-10.461c-18.062-0.070312-35.188 8.0312-46.598 22.035-11.406 14.004-15.871 32.418-12.148 50.09 3.7266 17.676 15.238 32.723 31.324 40.934-0.37891 0.44141-0.83984 0.87891-1.2383 1.3398-71.844 82.574-117.11 184.9-129.88 293.6-0.42188 5.6602-0.83984 11.281-1.0391 16.941-0.21875 5.2617-0.42188 10.922-0.42188 16.379 0 8 0.21875 15.68 0.85938 23.441 3.6406 51.469 19.965 101.23 47.52 144.86l-168-27.16c-33.605-5.3438-68.016-2.0508-100 9.5586l-81.777 35.34c-2.8906-13.398-10.277-25.406-20.941-34.023-10.66-8.6172-23.953-13.324-37.66-13.336h-120c-15.914 0-31.176 6.3203-42.426 17.574-11.254 11.25-17.574 26.512-17.574 42.426v280c0 15.914 6.3203 31.176 17.574 42.426 11.25 11.254 26.512 17.574 42.426 17.574h120c15.176-0.066406 29.762-5.8828 40.82-16.273 11.059-10.391 17.77-24.586 18.781-39.727 4.3945-0.082031 8.7734 0.53125 12.977 1.8203l406.5 110c30.926 9.2422 64.402 3.0742 90-16.582l426.92-322.14c11.727-9.3125 19.781-22.473 22.734-37.148 2.957-14.68 0.62109-29.934-6.5938-43.055zm-470.72-714.62c44.918-14.07 91.648-21.516 138.72-22.102 47.07 0.58203 93.801 8.0273 138.72 22.102l-31.16 97.898h-215.12zm-21.281 137.9h320c7.1445 0 13.746 3.8125 17.32 10 3.5742 6.1875 3.5742 13.812 0 20-3.5742 6.1875-10.176 10-17.32 10h-320c-7.1445 0-13.746-3.8125-17.32-10-3.5742-6.1875-3.5742-13.812 0-20 3.5742-6.1875 10.176-10 17.32-10zm-119.26 421.78c-0.55859-6.8594-0.73828-13.52-0.73828-20.379 0-4.9609 0.19922-10 0.37891-14.801 0.19922-5.1797 0.57812-10.34 0.92188-15.102 11.863-100.23 53.688-194.56 120-270.66 6.3047-7.2852 12.98-14.238 20-20.84h277.28c81 76.66 141.42 213.26 141.42 321.4 0.058594 57.66-17.969 113.88-51.539 160.76l-171.12 96.66c-3.4336-11.363-9.9961-21.531-18.938-29.336-8.9414-7.8086-19.898-12.938-31.621-14.805l-222.18-36c-37.336-44.234-59.695-99.164-63.863-156.9zm-380.74 458.22c0 5.3047-2.1055 10.391-5.8594 14.141-3.75 3.7539-8.8359 5.8594-14.141 5.8594h-120c-5.3047 0-10.391-2.1055-14.141-5.8594-3.7539-3.75-5.8594-8.8359-5.8594-14.141v-280c0-5.3047 2.1055-10.391 5.8594-14.141 3.75-3.7539 8.8359-5.8594 14.141-5.8594h120c5.3047 0 10.391 2.1055 14.141 5.8594 3.7539 3.75 5.8594 8.8359 5.8594 14.141v16c0 0.46094-0.19922 0.87891-0.19922 1.3203l0.19922 250.18zm951.54-254.54-426.82 322c-15.562 11.938-35.941 15.617-54.699 9.8789l-406.28-110c-7.5195-2.3164-15.348-3.4883-23.219-3.4805h-0.51953v-213.54l94.961-41.02c25.309-9.0547 52.5-11.566 79.039-7.3008l446.36 72.141c5.4414 0.89453 10.395 3.6758 13.988 7.8633 3.5938 4.1836 5.5938 9.5 5.6523 15.016-0.027344 3.0156-0.61719 6-1.7383 8.8008-1.0977 2.7539-2.7266 5.2617-4.8008 7.3789-4.4297 4.4062-10.414 6.8984-16.66 6.9414h-300.04l-76.762-0.14062c-7.1445 0-13.746 3.8125-17.32 10-3.5742 6.1875-3.5742 13.812 0 20 3.5742 6.1875 10.176 10 17.32 10l71.379 0.19922 116.36 72.219v0.003906c9.043 5.0703 19.234 7.7422 29.602 7.7578 10.168-0.003907 20.164-2.6055 29.039-7.5586l128.3-72.422h2c16.762-0.027344 32.836-6.6602 44.742-18.461 3.9414-4.0664 7.3047-8.6562 10-13.637l214-120.9v-0.003906c6.8242-3.7344 15.07-3.8086 21.961-0.19531 6.8945 3.6172 11.523 10.438 12.336 18.18 0.80859 7.7383-2.3047 15.371-8.2969 20.336zm-444.72 152.24c-5.8516 3.2617-12.949 3.3516-18.879 0.24219l-60.84-37.762h146.18z"/>
  <path d="m140 820h-40c-7.1445 0-13.746 3.8125-17.32 10-3.5742 6.1875-3.5742 13.812 0 20 3.5742 6.1875 10.176 10 17.32 10h40c7.1445 0 13.746-3.8125 17.32-10 3.5742-6.1875 3.5742-13.812 0-20-3.5742-6.1875-10.176-10-17.32-10z"/>
  <path d="m140 1020h-40c-7.1445 0-13.746 3.8125-17.32 10-3.5742 6.1875-3.5742 13.812 0 20 3.5742 6.1875 10.176 10 17.32 10h40c7.1445 0 13.746-3.8125 17.32-10 3.5742-6.1875 3.5742-13.812 0-20-3.5742-6.1875-10.176-10-17.32-10z"/>
  <path d="m880 720v-2c30.375-6.168 56.176-26.074 69.848-53.891s13.672-60.402 0-88.219-39.473-47.723-69.848-53.891v-118.32c11.656 4.1211 21.758 11.746 28.918 21.828 7.1602 10.078 11.031 22.129 11.082 34.492 0 7.1445 3.8125 13.746 10 17.32 6.1875 3.5742 13.812 3.5742 20 0 6.1875-3.5742 10-10.176 10-17.32-0.027344-23.043-8-45.375-22.574-63.227-14.574-17.852-34.855-30.133-57.426-34.773v-2c0-7.1445-3.8125-13.746-10-17.32-6.1875-3.5742-13.812-3.5742-20 0-6.1875 3.5742-10 10.176-10 17.32v2c-30.375 6.168-56.176 26.074-69.848 53.891s-13.672 60.402 0 88.219 39.473 47.723 69.848 53.891v118.34c-11.66-4.1211-21.762-11.75-28.926-21.836-7.1602-10.082-11.027-22.137-11.074-34.504 0-7.1445-3.8125-13.746-10-17.32-6.1875-3.5742-13.812-3.5742-20 0-6.1875 3.5742-10 10.176-10 17.32 0.027344 23.043 8 45.375 22.574 63.227 14.574 17.852 34.855 30.133 57.426 34.773v2c0 7.1445 3.8125 13.746 10 17.32 6.1875 3.5742 13.812 3.5742 20 0 6.1875-3.5742 10-10.176 10-17.32zm40-100c-0.050781 12.363-3.9219 24.414-11.082 34.492-7.1602 10.082-17.262 17.707-28.918 21.828v-112.64c11.656 4.1211 21.758 11.746 28.918 21.828 7.1602 10.078 11.031 22.129 11.082 34.492zm-120-160c0.050781-12.363 3.9219-24.414 11.082-34.492 7.1602-10.082 17.262-17.707 28.918-21.828v112.64c-11.656-4.1211-21.758-11.746-28.918-21.828-7.1602-10.078-11.031-22.129-11.082-34.492z"/>
 </g>
</svg>
