<?xml version="1.0" encoding="UTF-8"?>
<svg width="1200pt" height="1200pt" version="1.1" viewBox="0 0 1200 1200" xmlns="http://www.w3.org/2000/svg">
 <g>
  <path d="m600 1200c132.34 0 240-100.6 240-224.28 0-85.52-55.141-168-111.68-217.64 5.4922-2.5938 9.5078-7.5508 10.91-13.461 1.4023-5.9141 0.042969-12.145-3.6992-16.93-3.7383-4.7891-9.4531-7.6172-15.531-7.6875h-17.641l16.641-62.82c1.8984-7.3359 1.1289-15.109-2.168-21.93-3.2969-6.8242-8.9062-12.258-15.832-15.328-32.18-12.707-66.402-19.457-101-19.922-34.742 0.4375-69.113 7.2148-101.42 20-6.8711 3.1641-12.398 8.6602-15.602 15.516-3.2031 6.8555-3.875 14.621-1.8984 21.926l16.562 62.559h-17.641c-6.0352 0.11719-11.695 2.957-15.398 7.7227-3.707 4.7656-5.0625 10.949-3.6875 16.828 1.375 5.8789 5.332 10.82 10.766 13.449-56.539 49.68-111.68 132.2-111.68 217.72 0 123.68 107.66 224.28 240 224.28zm0-560c26.746 0.41406 53.242 5.207 78.441 14.18l-17.461 65.82h-122l-17.461-65.82c25.211-8.9766 51.723-13.766 78.48-14.18zm-62.82 120h125.64c57.5 31.121 137.18 123.12 137.18 215.72 0 101.6-89.719 184.28-200 184.28s-200-82.68-200-184.28c0-92.598 79.68-184.6 137.18-215.72z"/>
  <path d="m800 200c0.003906-51.887-20.156-101.75-56.227-139.05-36.07-37.301-85.227-59.125-137.09-60.859s-102.36 16.754-140.84 51.559c-38.484 34.805-61.934 83.207-65.398 134.98-3.4648 51.77 13.328 102.86 46.832 142.48 33.504 39.625 81.094 64.676 132.72 69.863v92.738l-5.8594-5.8594c-5.082-4.9062-12.371-6.7695-19.184-4.9023-6.8125 1.8672-12.133 7.1875-14 14-1.8672 6.8125-0.003906 14.102 4.9023 19.184l40 40c3.7539 3.7617 8.8477 5.875 14.16 5.875s10.41-2.1133 14.16-5.875l40-40c4.9062-5.082 6.7695-12.371 4.9023-19.184-1.8672-6.8125-7.1875-12.133-14-14-6.8125-1.8672-14.102-0.003906-19.184 4.9023l-5.8984 5.8594v-92.738c49.309-5.0156 95.004-28.133 128.25-64.887 33.25-36.754 51.688-84.531 51.75-134.09zm-360 0c0-42.434 16.855-83.133 46.863-113.14 30.004-30.008 70.703-46.863 113.14-46.863s83.133 16.855 113.14 46.863c30.008 30.004 46.863 70.703 46.863 113.14s-16.855 83.133-46.863 113.14c-30.004 30.008-70.703 46.863-113.14 46.863-42.422-0.046875-83.09-16.922-113.09-46.914-29.992-29.996-46.867-70.664-46.914-113.09z"/>
  <path d="m1e3 200c-51.281 0.042969-100.58 19.785-137.73 55.141-37.141 35.359-59.281 83.629-61.852 134.85-2.5664 51.215 14.637 101.46 48.059 140.36 33.418 38.895 80.5 63.465 131.52 68.637v64.461c0 5.3008-2.1094 10.391-5.8594 14.137l-54.141 54.141v-8.2812 0.003906c0-7.1484-3.8125-13.75-10-17.32-6.1875-3.5742-13.812-3.5742-20 0-6.1875 3.5703-10 10.172-10 17.32v56.559c0 5.3047 2.1055 10.391 5.8594 14.141 3.75 3.7539 8.8359 5.8594 14.141 5.8594h56.559c7.1484 0 13.75-3.8125 17.32-10 3.5742-6.1875 3.5742-13.812 0-20-3.5703-6.1875-10.172-10-17.32-10h-8.2812l54.141-54.141h0.003906c11.293-11.223 17.625-26.496 17.578-42.418v-64.461c51.02-5.1719 98.102-29.742 131.52-68.637 33.422-38.895 50.625-89.141 48.059-140.36-2.5703-51.219-24.711-99.488-61.852-134.85-37.145-35.355-86.445-55.098-137.73-55.141zm0 360c-42.434 0-83.133-16.855-113.14-46.863-30.008-30.004-46.863-70.703-46.863-113.14s16.855-83.133 46.863-113.14c30.004-30.008 70.703-46.863 113.14-46.863s83.133 16.855 113.14 46.863c30.008 30.004 46.863 70.703 46.863 113.14-0.046875 42.422-16.922 83.09-46.914 113.09-29.996 29.992-70.664 46.867-113.09 46.914z"/>
  <path d="m200 200c-51.281 0.042969-100.58 19.785-137.73 55.141-37.141 35.359-59.281 83.629-61.852 134.85-2.5664 51.215 14.637 101.46 48.059 140.36 33.418 38.895 80.5 63.465 131.52 68.637v64.461c-0.046875 15.922 6.2852 31.195 17.578 42.418l54.141 54.141h-8.2812 0.003906c-7.1484 0-13.75 3.8125-17.32 10-3.5742 6.1875-3.5742 13.812 0 20 3.5703 6.1875 10.172 10 17.32 10h56.559c5.3047 0 10.391-2.1055 14.141-5.8594 3.7539-3.75 5.8594-8.8359 5.8594-14.141v-56.559c0-7.1484-3.8125-13.75-10-17.32-6.1875-3.5742-13.812-3.5742-20 0-6.1875 3.5703-10 10.172-10 17.32v8.2812l-54.141-54.141v-0.003906c-3.75-3.7461-5.8594-8.8359-5.8594-14.137v-64.461c51.02-5.1719 98.102-29.742 131.52-68.637 33.422-38.895 50.625-89.141 48.059-140.36-2.5703-51.219-24.711-99.488-61.852-134.85-37.145-35.355-86.445-55.098-137.73-55.141zm0 360c-42.434 0-83.133-16.855-113.14-46.863-30.008-30.004-46.863-70.703-46.863-113.14s16.855-83.133 46.863-113.14c30.004-30.008 70.703-46.863 113.14-46.863s83.133 16.855 113.14 46.863c30.008 30.004 46.863 70.703 46.863 113.14-0.046875 42.422-16.922 83.09-46.914 113.09-29.996 29.992-70.664 46.867-113.09 46.914z"/>
  <path d="m600 980c7.1445 0.007812 13.742 3.8242 17.309 10.012 3.5664 6.1914 3.5625 13.812-0.011719 19.996-3.5742 6.1836-10.176 9.9922-17.32 9.9922-7.1445 0-13.746-3.8125-17.316-10-3.6836-5.9531-10.215-9.5508-17.215-9.4766-7 0.070312-13.457 3.8008-17.016 9.8281-3.5586 6.0312-3.707 13.484-0.39063 19.648 7.2539 12.184 18.594 21.395 32 26v4c0 7.1445 3.8125 13.746 10 17.32 6.1875 3.5742 13.812 3.5742 20 0 6.1875-3.5742 10-10.176 10-17.32v-3.6797c17.93-6.3164 31.793-20.77 37.355-38.945 5.5625-18.172 2.1602-37.91-9.1641-53.176s-29.223-24.246-48.23-24.199c-7.1445-0.007812-13.742-3.8242-17.309-10.012-3.5664-6.1914-3.5625-13.812 0.011719-19.996 3.5742-6.1836 10.176-9.9922 17.32-9.9922 7.1445 0 13.746 3.8125 17.316 10 3.6836 5.9531 10.215 9.5508 17.215 9.4766 7-0.070312 13.457-3.8008 17.016-9.8281 3.5586-6.0312 3.707-13.484 0.39063-19.648-7.2422-12.176-18.566-21.387-31.961-26v-4c0-7.1445-3.8125-13.746-10-17.32-6.1875-3.5742-13.812-3.5742-20 0-6.1875 3.5742-10 10.176-10 17.32v3.6797c-17.922 6.3125-31.785 20.762-37.348 38.93-5.5664 18.172-2.1719 37.902 9.1406 53.172 11.312 15.266 29.203 24.254 48.207 24.219z"/>
  <path d="m620 300v-3.6797c17.922-6.3125 31.785-20.762 37.348-38.93 5.5664-18.172 2.1719-37.902-9.1406-53.172-11.312-15.266-29.203-24.254-48.207-24.219-7.1445-0.007812-13.742-3.8242-17.309-10.012-3.5664-6.1914-3.5625-13.812 0.011719-19.996 3.5742-6.1836 10.176-9.9922 17.32-9.9922 7.1445 0 13.746 3.8125 17.316 10 3.6836 5.9531 10.215 9.5508 17.215 9.4766 7-0.070312 13.457-3.8008 17.016-9.8281 3.5586-6.0312 3.707-13.484 0.39063-19.648-7.2422-12.176-18.566-21.387-31.961-26v-4c0-7.1445-3.8125-13.746-10-17.32-6.1875-3.5742-13.812-3.5742-20 0-6.1875 3.5742-10 10.176-10 17.32v3.6797c-17.922 6.3125-31.785 20.762-37.348 38.93-5.5664 18.172-2.1719 37.902 9.1406 53.172 11.312 15.266 29.203 24.254 48.207 24.219 7.1445 0.007812 13.742 3.8242 17.309 10.012 3.5664 6.1914 3.5625 13.812-0.011719 19.996-3.5742 6.1836-10.176 9.9922-17.32 9.9922-7.1445 0-13.746-3.8125-17.316-10-3.6836-5.9531-10.215-9.5508-17.215-9.4766-7 0.070312-13.457 3.8008-17.016 9.8281-3.5586 6.0312-3.707 13.484-0.39063 19.648 7.2539 12.184 18.594 21.395 32 26v4c0 7.1445 3.8125 13.746 10 17.32 6.1875 3.5742 13.812 3.5742 20 0 6.1875-3.5742 10-10.176 10-17.32z"/>
  <path d="m1e3 380c-7.1445-0.007812-13.742-3.8242-17.309-10.012-3.5664-6.1914-3.5625-13.812 0.011719-19.996 3.5742-6.1836 10.176-9.9922 17.32-9.9922 7.1445 0 13.746 3.8125 17.316 10 3.6836 5.9531 10.215 9.5508 17.215 9.4766 7-0.070312 13.457-3.8008 17.016-9.8281 3.5586-6.0312 3.707-13.484 0.39063-19.648-7.2422-12.176-18.566-21.387-31.961-26v-4c0-7.1445-3.8125-13.746-10-17.32-6.1875-3.5742-13.812-3.5742-20 0-6.1875 3.5742-10 10.176-10 17.32v3.6797c-17.922 6.3125-31.785 20.762-37.348 38.93-5.5664 18.172-2.1719 37.902 9.1406 53.172 11.312 15.266 29.203 24.254 48.207 24.219 7.1445 0.007812 13.742 3.8242 17.309 10.012 3.5664 6.1914 3.5625 13.812-0.011719 19.996-3.5742 6.1836-10.176 9.9922-17.32 9.9922-7.1445 0-13.746-3.8125-17.316-10-3.6836-5.9531-10.215-9.5508-17.215-9.4766-7 0.070312-13.457 3.8008-17.016 9.8281-3.5586 6.0312-3.707 13.484-0.39063 19.648 7.2539 12.184 18.594 21.395 32 26v4c0 7.1445 3.8125 13.746 10 17.32 6.1875 3.5742 13.812 3.5742 20 0 6.1875-3.5742 10-10.176 10-17.32v-3.6797c17.93-6.3164 31.793-20.77 37.355-38.945 5.5625-18.172 2.1602-37.91-9.1641-53.176s-29.223-24.246-48.23-24.199z"/>
  <path d="m200 380c-7.1445-0.007812-13.742-3.8242-17.309-10.012-3.5664-6.1914-3.5625-13.812 0.011719-19.996 3.5742-6.1836 10.176-9.9922 17.32-9.9922 7.1445 0 13.746 3.8125 17.316 10 3.6836 5.9531 10.215 9.5508 17.215 9.4766 7-0.070312 13.457-3.8008 17.016-9.8281 3.5586-6.0312 3.707-13.484 0.39063-19.648-7.2422-12.176-18.566-21.387-31.961-26v-4c0-7.1445-3.8125-13.746-10-17.32-6.1875-3.5742-13.812-3.5742-20 0-6.1875 3.5742-10 10.176-10 17.32v3.6797c-17.922 6.3125-31.785 20.762-37.348 38.93-5.5664 18.172-2.1719 37.902 9.1406 53.172 11.312 15.266 29.203 24.254 48.207 24.219 7.1445 0.007812 13.742 3.8242 17.309 10.012 3.5664 6.1914 3.5625 13.812-0.011719 19.996-3.5742 6.1836-10.176 9.9922-17.32 9.9922-7.1445 0-13.746-3.8125-17.316-10-3.6836-5.9531-10.215-9.5508-17.215-9.4766-7 0.070312-13.457 3.8008-17.016 9.8281-3.5586 6.0312-3.707 13.484-0.39063 19.648 7.2539 12.184 18.594 21.395 32 26v4c0 7.1445 3.8125 13.746 10 17.32 6.1875 3.5742 13.812 3.5742 20 0 6.1875-3.5742 10-10.176 10-17.32v-3.6797c17.93-6.3164 31.793-20.77 37.355-38.945 5.5625-18.172 2.1602-37.91-9.1641-53.176s-29.223-24.246-48.23-24.199z"/>
 </g>
</svg>
