<?xml version="1.0" encoding="UTF-8"?>
<svg width="1200pt" height="1200pt" version="1.1" viewBox="0 0 1200 1200" xmlns="http://www.w3.org/2000/svg">
 <g>
  <path d="m17.461 239.5 222.54 151.12v249.38c0 26 19.059 48.68 56.48 67.66-35.039 69.41-45.227 148.73-28.871 224.74 16.355 76.012 58.27 144.12 118.75 192.98s135.89 75.504 213.64 75.504 153.15-26.648 213.64-75.504 102.4-116.96 118.75-192.98c16.355-76.008 6.168-155.33-28.871-224.74 37.422-18.98 56.48-41.66 56.48-67.66v-249.42l80-54.32v87.422c-17.938 6.3438-31.805 20.816-37.371 39.008-5.5703 18.191-2.1797 37.945 9.1328 53.242 11.316 15.297 29.215 24.32 48.238 24.32s36.922-9.0234 48.238-24.32c11.312-15.297 14.703-35.051 9.1328-53.242-5.5664-18.191-19.434-32.664-37.371-39.008v-114.58l102.68-69.719v-0.003906c8.3711-5.7227 14.254-14.41 16.465-24.305 2.207-9.8984 0.57422-20.266-4.5664-29.004-5.1445-8.7383-13.414-15.195-23.137-18.07l-554.36-165.5c-11.16-3.3398-23.055-3.3398-34.219 0l-554.26 165.5c-9.7227 2.9141-17.98 9.4062-23.109 18.164-5.125 8.7617-6.7422 19.141-4.5234 29.043 2.2227 9.9062 8.1133 18.602 16.492 24.332zm1042.5 260.5c-5.3047 0-10.391-2.1055-14.141-5.8594-3.7539-3.75-5.8594-8.8359-5.8594-14.141s2.1055-10.391 5.8594-14.141c3.75-3.7539 8.8359-5.8594 14.141-5.8594s10.391 2.1055 14.141 5.8594c3.7539 3.75 5.8594 8.8359 5.8594 14.141s-2.1055 10.391-5.8594 14.141c-3.75 3.7539-8.8359 5.8594-14.141 5.8594zm-140 82.16c-63.059-40.922-191.9-62.16-320-62.16s-256.94 21.238-320 62.16v-202.16c0-28 110-80 320-80s320 52 320 80zm-640 57.84c0-17.84 45.039-45.461 132.16-63.141-38.004 25.293-70.562 57.934-95.762 96-26.398-13.059-36.398-25.5-36.398-32.859zm320 520c-79.566 0-155.87-31.605-212.13-87.867-56.262-56.262-87.867-132.57-87.867-212.13s31.605-155.87 87.867-212.13c56.262-56.262 132.57-87.867 212.13-87.867s155.87 31.605 212.13 87.867c56.262 56.262 87.867 132.57 87.867 212.13-0.089844 79.539-31.727 155.79-87.969 212.03-56.238 56.242-132.49 87.879-212.03 87.969zm283.6-487.08c-25.199-38.07-57.758-70.711-95.762-96 87.121 17.617 132.16 45.238 132.16 63.078 0 7.3594-10 19.801-36.398 32.922zm196.4-412.16v-78.32l80.102 24zm-485.72-220c3.7031-1.1211 7.6562-1.1211 11.359 0l434.36 129.74v117.5l-90.398 61.379c-40.402-58.777-195.6-89.379-349.6-89.379s-309.22 30.602-349.62 89.32l-210.38-143.04z"/>
  <path d="m680 760c0 7.1445 3.8125 13.746 10 17.32 6.1875 3.5742 13.812 3.5742 20 0 6.1875-3.5742 10-10.176 10-17.32-0.050781-28.332-10.117-55.73-28.414-77.359-18.301-21.629-43.656-36.094-71.586-40.84v-21.801c0-7.1445-3.8125-13.746-10-17.32-6.1875-3.5742-13.812-3.5742-20 0-6.1875 3.5742-10 10.176-10 17.32v21.801c-37.57 6.3164-69.902 30.121-87.09 64.125-17.188 34-17.188 74.148 0 108.15 17.188 34.004 49.52 57.809 87.09 64.125v158.96c-17.121-4.4219-32.297-14.391-43.152-28.352-10.855-13.961-16.781-31.125-16.848-48.809 0-7.1445-3.8125-13.746-10-17.32-6.1875-3.5742-13.812-3.5742-20 0-6.1875 3.5742-10 10.176-10 17.32 0.050781 28.332 10.117 55.73 28.414 77.359 18.301 21.629 43.656 36.094 71.586 40.84v21.801c0 7.1445 3.8125 13.746 10 17.32 6.1875 3.5742 13.812 3.5742 20 0 6.1875-3.5742 10-10.176 10-17.32v-21.801c37.57-6.3164 69.902-30.121 87.09-64.125 17.188-34 17.188-74.148 0-108.15-17.188-34.004-49.52-57.809-87.09-64.125v-158.96c17.121 4.4219 32.297 14.391 43.152 28.352 10.855 13.961 16.781 31.125 16.848 48.809zm-160 0c0.066406-17.684 5.9922-34.848 16.848-48.809 10.855-13.961 26.031-23.93 43.152-28.352v154.32c-17.121-4.4219-32.297-14.391-43.152-28.352-10.855-13.961-16.781-31.125-16.848-48.809zm160 200c-0.066406 17.684-5.9922 34.848-16.848 48.809-10.855 13.961-26.031 23.93-43.152 28.352v-154.32c17.121 4.4219 32.297 14.391 43.152 28.352 10.855 13.961 16.781 31.125 16.848 48.809z"/>
 </g>
</svg>
